<?xml version="1.0" standalone="no"?>
<!DOCTYPE svg PUBLIC "-//W3C//DTD SVG 20010904//EN"
 "http://www.w3.org/TR/2001/REC-SVG-20010904/DTD/svg10.dtd">
<svg version="1.0" xmlns="http://www.w3.org/2000/svg"
 width="826.000000pt" height="183.000000pt" viewBox="0 0 826.000000 183.000000"
 preserveAspectRatio="xMidYMid meet">

<g transform="translate(0.000000,183.000000) scale(0.100000,-0.100000)"
fill="#000000" stroke="none">
<path d="M2938 1569 c-74 -145 -202 -393 -283 -551 l-147 -288 110 0 109 0 36
80 36 80 204 0 205 0 18 -70 c10 -39 21 -75 24 -80 4 -7 47 -10 111 -8 l105 3
-187 535 c-103 294 -191 541 -196 549 -7 11 -45 -54 -145 -250z m157 -304 c25
-88 48 -168 51 -177 5 -17 -6 -18 -126 -18 -102 0 -131 3 -127 13 3 6 37 83
76 169 39 87 71 163 71 169 0 28 12 -5 55 -156z"/>
<path d="M1393 1790 c-154 -28 -298 -129 -377 -265 -100 -169 -112 -424 -30
-587 35 -69 121 -153 188 -184 63 -29 172 -54 236 -54 105 0 275 55 290 94 4
12 11 68 15 124 7 103 7 104 -13 93 -12 -6 -24 -16 -27 -21 -13 -22 -125 -70
-184 -79 -238 -38 -399 140 -348 385 28 133 93 221 200 270 54 25 74 29 157
29 107 0 158 -17 223 -75 20 -17 38 -30 38 -29 1 2 7 55 13 118 11 111 11 114
-10 128 -76 49 -251 74 -371 53z"/>
<path d="M56 1743 c-3 -21 -18 -177 -32 -348 -23 -263 -25 -320 -15 -378 33
-197 164 -308 362 -308 139 0 215 28 306 113 114 109 134 175 168 573 14 165
28 319 31 343 l5 43 -103 -3 -102 -3 -32 -347 c-29 -325 -32 -350 -58 -403
-31 -62 -74 -96 -145 -115 -115 -30 -213 32 -235 150 -3 20 7 185 24 368 16
183 30 337 30 342 0 6 -43 10 -99 10 l-99 0 -6 -37z"/>
<path d="M1956 1768 c-2 -7 -23 -231 -46 -498 -22 -267 -43 -497 -46 -512 l-6
-28 305 0 305 0 6 38 c3 20 8 63 11 95 l6 57 -205 0 -206 0 5 38 c3 20 19 195
35 387 16 193 32 369 35 393 l6 42 -101 0 c-72 0 -102 -4 -104 -12z"/>
<path d="M4041 1441 c-70 -24 -100 -48 -128 -101 -48 -90 -19 -208 61 -255 23
-13 99 -39 169 -58 148 -40 169 -54 165 -111 -2 -33 -9 -44 -37 -63 -40 -27
-131 -32 -186 -9 -33 14 -65 59 -65 91 0 12 -14 15 -75 15 l-75 0 0 -27 c1
-77 82 -171 171 -197 29 -9 89 -16 135 -16 183 0 288 84 287 230 -1 61 -17
102 -55 136 -37 34 -77 51 -189 79 -162 40 -179 50 -179 108 0 42 43 71 113
75 75 4 120 -19 143 -73 l14 -35 70 0 c39 0 70 4 70 8 0 36 -35 111 -67 144
-73 75 -221 100 -342 59z"/>
<path d="M7000 1085 l0 -365 70 0 70 0 0 365 0 365 -70 0 -70 0 0 -365z"/>
<path d="M7220 1385 l0 -65 70 0 70 0 0 65 0 65 -70 0 -70 0 0 -65z"/>
<path d="M4667 1246 c-54 -15 -103 -55 -123 -103 -25 -57 -21 -63 46 -63 54 0
61 3 69 23 14 36 37 49 91 50 53 1 90 -21 90 -54 0 -28 -37 -46 -120 -59 -95
-15 -148 -38 -183 -79 -22 -27 -27 -42 -27 -87 0 -66 18 -105 63 -133 68 -42
184 -39 237 5 l30 26 10 -26 c9 -24 14 -26 72 -26 l63 0 -3 172 c-3 206 -13
266 -51 307 -50 53 -164 74 -264 47z m162 -383 c-24 -44 -124 -70 -162 -40 -9
6 -19 24 -22 38 -10 42 20 68 110 93 l80 22 3 -45 c2 -25 -2 -55 -9 -68z"/>
<path d="M5286 1250 c-16 -5 -44 -24 -63 -42 l-33 -32 0 37 0 37 -65 0 -65 0
0 -265 0 -265 70 0 70 0 0 170 c0 190 7 218 60 240 38 16 82 0 99 -36 7 -16
11 -91 11 -199 l0 -175 70 0 70 0 0 173 c0 151 2 176 19 203 33 55 114 53 140
-2 7 -16 11 -91 11 -199 l0 -175 71 0 70 0 -3 213 c-3 204 -4 214 -27 251 -56
90 -189 99 -273 19 l-28 -26 -25 27 c-45 49 -111 66 -179 46z"/>
<path d="M6610 1251 c-75 -24 -135 -78 -167 -149 -25 -57 -23 -185 3 -243 44
-95 132 -149 242 -149 72 0 123 16 167 52 30 25 75 93 75 113 0 3 -30 5 -66 5
-60 0 -68 -3 -94 -30 -24 -26 -35 -30 -78 -30 -58 0 -97 25 -118 76 -8 19 -14
36 -14 38 0 3 84 7 188 8 l187 3 -3 45 c-6 111 -57 202 -135 242 -45 22 -145
33 -187 19z m114 -111 c26 -9 66 -63 66 -87 0 -10 -30 -13 -115 -13 l-115 0
11 27 c26 69 87 98 153 73z"/>
<path d="M5902 1031 c3 -204 5 -222 24 -247 32 -44 68 -66 117 -71 67 -8 113
4 152 39 l35 30 0 -31 0 -31 65 0 65 0 0 265 0 266 -67 -3 -68 -3 -5 -183 -5
-184 -28 -24 c-32 -28 -92 -32 -123 -10 -17 13 -19 31 -24 208 l-5 193 -68 3
-68 3 3 -220z"/>
<path d="M7227 1243 c-4 -3 -7 -123 -7 -265 l0 -258 70 0 70 0 0 265 0 265
-63 0 c-35 0 -67 -3 -70 -7z"/>
<path d="M3972 489 c-69 -34 -102 -98 -102 -197 0 -69 29 -133 77 -170 29 -21
49 -27 102 -30 56 -3 71 0 100 20 44 30 69 66 73 103 3 26 0 30 -21 30 -19 0
-27 -7 -33 -32 -12 -47 -51 -73 -111 -73 -44 0 -54 4 -87 38 -65 65 -63 181 5
249 28 28 40 33 83 33 53 0 96 -24 107 -60 4 -13 15 -20 32 -20 22 0 24 3 18
28 -22 88 -145 129 -243 81z"/>
<path d="M6435 496 c-47 -21 -70 -52 -70 -97 0 -55 34 -86 121 -108 115 -29
142 -55 122 -113 -28 -80 -208 -42 -208 43 0 14 -7 19 -26 19 -25 0 -26 -2
-21 -36 12 -70 77 -114 168 -114 111 0 174 73 139 164 -12 34 -61 63 -130 77
-89 20 -110 34 -110 74 0 42 25 58 88 58 46 0 92 -32 92 -65 0 -13 8 -18 29
-18 28 0 29 1 21 31 -24 82 -128 123 -215 85z"/>
<path d="M7010 470 c0 -25 4 -30 25 -30 21 0 25 5 25 30 0 25 -4 30 -25 30
-21 0 -25 -5 -25 -30z"/>
<path d="M5650 435 c0 -38 -3 -45 -20 -45 -13 0 -20 -7 -20 -20 0 -13 7 -20
20 -20 19 0 20 -7 20 -106 0 -58 4 -114 10 -124 20 -37 100 -37 100 1 0 14 -7
19 -30 19 l-30 0 0 105 0 105 30 0 c23 0 30 4 30 20 0 16 -7 20 -30 20 -29 0
-30 2 -30 45 0 41 -2 45 -25 45 -23 0 -25 -4 -25 -45z"/>
<path d="M4344 386 c-93 -41 -112 -187 -34 -261 40 -38 120 -46 167 -16 48 30
66 72 61 147 -4 71 -27 106 -85 130 -40 17 -69 17 -109 0z m124 -63 c17 -19
22 -36 22 -79 0 -48 -4 -60 -29 -85 -85 -84 -190 30 -135 146 27 58 97 67 142
18z"/>
<path d="M4690 393 c-8 -3 -23 -12 -32 -21 -16 -14 -18 -13 -18 1 0 12 -9 17
-30 17 l-31 0 3 -147 3 -148 25 0 c25 0 25 0 28 110 3 124 13 145 69 145 45 0
53 -24 53 -156 0 -104 0 -105 23 -102 21 3 22 8 25 113 3 124 13 145 69 145
45 0 53 -24 53 -156 0 -104 0 -105 23 -102 21 3 22 8 25 103 2 55 -2 117 -8
137 -19 68 -93 85 -155 37 -14 -11 -25 -16 -25 -10 0 12 -53 41 -72 40 -7 0
-20 -3 -28 -6z"/>
<path d="M5117 381 c-29 -15 -37 -16 -37 -5 0 8 -10 14 -25 14 l-25 0 0 -195
0 -195 25 0 c24 0 25 3 25 61 l0 60 22 -15 c34 -24 109 -21 143 6 80 63 70
230 -18 271 -45 22 -64 21 -110 -2z m102 -50 c39 -39 39 -138 0 -179 -35 -38
-100 -28 -124 19 -28 53 -11 157 27 172 30 12 79 6 97 -12z"/>
<path d="M5851 383 c-50 -26 -74 -64 -79 -126 -8 -100 47 -167 136 -167 65 0
121 38 122 83 0 26 -29 20 -60 -13 -38 -40 -81 -41 -121 -1 -16 16 -29 39 -29
50 0 20 5 21 110 21 l110 0 0 31 c0 36 -33 100 -60 117 -36 22 -93 24 -129 5z
m92 -34 c23 -10 47 -46 47 -69 0 -6 -38 -10 -86 -10 -84 0 -85 0 -78 23 17 56
66 79 117 56z"/>
<path d="M6805 393 c-103 -26 -137 -177 -60 -261 32 -35 36 -37 99 -37 57 0
69 3 90 25 14 14 28 37 31 53 6 24 4 27 -19 27 -16 0 -26 -6 -26 -15 0 -25
-42 -55 -77 -55 -86 0 -124 141 -55 204 36 32 98 25 120 -14 11 -19 25 -30 40
-30 28 0 28 19 0 55 -34 43 -88 61 -143 48z"/>
<path d="M7184 386 c-93 -42 -112 -187 -34 -261 58 -55 170 -42 205 25 20 38
19 40 -10 40 -14 0 -25 -4 -25 -10 0 -5 -10 -18 -22 -30 -24 -22 -68 -26 -99
-10 -19 10 -49 59 -49 80 0 6 41 10 115 10 l115 0 -7 33 c-10 55 -30 95 -57
112 -35 23 -95 28 -132 11z m119 -57 c9 -12 17 -30 17 -40 0 -17 -8 -19 -85
-19 l-85 0 13 33 c24 58 101 73 140 26z"/>
<path d="M7505 384 c-19 -10 -31 -11 -33 -5 -2 6 -17 11 -33 11 l-30 0 3 -147
3 -148 25 0 c25 0 25 0 28 110 3 127 12 145 73 145 59 0 69 -23 69 -153 0
-107 0 -108 23 -105 21 3 22 8 25 103 4 129 -8 172 -53 191 -44 18 -63 18
-100 -2z"/>
<path d="M7785 386 c-84 -38 -114 -144 -66 -234 20 -37 70 -62 125 -62 41 0
53 5 82 34 41 41 46 76 9 76 -16 0 -25 -6 -25 -15 0 -26 -38 -55 -72 -55 -59
1 -88 40 -88 119 0 66 29 102 82 104 38 1 78 -24 78 -50 0 -7 11 -13 25 -13
29 0 31 10 9 51 -26 51 -99 72 -159 45z"/>
<path d="M8070 383 c-51 -26 -80 -76 -80 -135 0 -101 51 -158 144 -158 41 0
53 5 82 34 19 19 34 41 34 50 0 25 -30 19 -60 -14 -38 -40 -81 -41 -121 -1
-16 16 -29 39 -29 50 0 20 5 21 111 21 l112 0 -6 40 c-13 99 -106 155 -187
113z m104 -45 c13 -13 27 -33 31 -45 6 -23 5 -23 -79 -23 -98 0 -108 10 -57
61 35 35 71 37 105 7z"/>
<path d="M5340 269 c0 -120 0 -121 29 -150 37 -36 94 -40 135 -8 l26 20 0 -21
c0 -16 5 -21 23 -18 22 3 22 6 25 151 l3 147 -25 0 c-24 0 -24 -1 -28 -111 -3
-102 -5 -112 -27 -130 -29 -24 -73 -24 -94 -1 -14 15 -17 40 -17 130 l0 112
-25 0 -25 0 0 -121z"/>
<path d="M6082 243 c3 -143 4 -148 25 -151 20 -3 21 1 25 101 4 121 17 147 75
147 29 0 33 3 33 25 0 21 -5 25 -29 25 -15 0 -40 -9 -55 -21 l-26 -20 0 20 c0
16 -6 21 -25 21 l-26 0 3 -147z"/>
<path d="M7010 239 c0 -150 0 -150 23 -147 22 3 22 6 25 151 l3 147 -26 0 -25
0 0 -151z"/>
</g>
</svg>
