<?xml version="1.0" standalone="no"?>
<!DOCTYPE svg PUBLIC "-//W3C//DTD SVG 20010904//EN"
 "http://www.w3.org/TR/2001/REC-SVG-20010904/DTD/svg10.dtd">
<svg version="1.0" xmlns="http://www.w3.org/2000/svg"
 width="1000.000000pt" height="650.000000pt" viewBox="0 0 1000.000000 650.000000"
 preserveAspectRatio="xMidYMid meet">

<g transform="translate(0.000000,650.000000) scale(0.100000,-0.100000)"
fill="#000000" stroke="none">
<path d="M4715 5947 l-120 -74 0 -1743 0 -1743 120 -74 c79 -49 130 -73 150
-73 20 0 71 25 150 73 l120 74 3 1401 2 1402 24 16 c23 14 28 14 58 0 82 -40
634 -405 645 -427 18 -33 18 -880 1 -912 -15 -29 -6 -23 -280 -193 -151 -94
-240 -156 -247 -171 -16 -34 -15 -853 0 -887 17 -36 61 -52 96 -34 37 19 943
597 966 616 16 14 17 71 17 927 0 714 -3 915 -12 927 -7 9 -348 229 -758 489
-544 345 -754 474 -780 477 -29 3 -55 -9 -155 -71z"/>
<path d="M3556 5219 c-121 -76 -228 -146 -238 -156 -17 -15 -18 -57 -18 -928
0 -856 1 -913 18 -927 9 -9 96 -65 192 -125 197 -123 600 -377 701 -441 78
-49 118 -54 154 -17 l25 24 0 425 0 425 -22 25 c-13 13 -122 86 -243 162 -121
75 -232 148 -247 162 l-28 26 0 727 c0 790 2 760 -53 758 -12 0 -121 -63 -241
-140z"/>
<path d="M5814 1185 c-120 -26 -187 -81 -221 -180 -26 -75 -23 -271 6 -346 51
-134 166 -175 468 -166 199 5 261 20 328 79 67 59 80 104 80 273 0 125 -2 145
-23 190 -41 89 -92 125 -211 151 -84 18 -344 17 -427 -1z m450 -145 c72 -37
91 -79 91 -200 0 -114 -17 -151 -86 -190 -43 -24 -50 -25 -239 -25 -190 0
-196 1 -239 25 -72 40 -84 66 -89 174 -5 108 6 151 48 191 47 45 104 55 295
52 160 -2 174 -4 219 -27z"/>
<path d="M7790 1186 c-79 -17 -125 -42 -169 -92 -52 -59 -66 -114 -66 -259 0
-144 17 -204 73 -257 74 -72 174 -93 417 -86 267 8 354 50 398 192 18 62 14
280 -7 335 -37 98 -110 151 -236 171 -87 13 -342 11 -410 -4z m446 -147 c79
-40 89 -61 89 -194 0 -133 -10 -154 -91 -195 -47 -24 -57 -25 -229 -25 -172 0
-182 1 -230 25 -63 32 -90 72 -98 148 -10 92 7 169 44 208 27 28 49 38 134 58
11 3 90 4 176 2 142 -2 160 -5 205 -27z"/>
<path d="M545 968 c-3 -123 -5 -277 -3 -343 l3 -120 329 0 330 0 32 55 c18 30
33 58 34 62 0 4 -134 9 -297 10 l-298 3 0 275 0 275 -61 3 -62 3 -7 -223z"/>
<path d="M1440 845 l0 -345 337 2 337 3 33 59 c18 32 33 60 33 62 0 2 -137 4
-305 4 l-305 0 0 70 0 70 253 0 c284 0 265 -5 306 77 11 23 21 45 21 47 0 3
-129 7 -287 8 l-288 3 -3 78 -3 77 273 0 273 0 32 59 c17 33 29 62 26 65 -4 3
-170 6 -370 6 l-363 0 0 -345z"/>
<path d="M2699 1167 c-27 -18 -70 -88 -206 -332 -95 -171 -172 -316 -173 -322
0 -9 22 -13 79 -13 l79 0 70 127 c38 71 102 190 142 266 39 75 77 137 83 137
7 0 76 -118 154 -263 l141 -262 82 -3 c76 -3 82 -1 76 15 -16 41 -330 600
-350 621 -50 56 -121 67 -177 29z"/>
<path d="M3413 1184 c-8 -4 -13 -27 -13 -65 l0 -59 319 0 c260 0 321 -3 330
-14 8 -9 11 -50 9 -117 l-3 -104 -325 -5 -325 -5 0 -155 0 -155 62 -3 62 -3 3
93 3 93 280 5 c311 6 316 7 352 73 15 26 18 57 18 172 0 159 -11 192 -75 230
-33 19 -53 20 -360 22 -179 1 -331 0 -337 -3z"/>
<path d="M4544 1176 c-17 -8 -36 -26 -42 -42 -6 -16 -48 -157 -92 -314 -44
-157 -83 -293 -86 -302 -5 -16 2 -18 61 -18 80 0 69 -19 145 258 36 131 58
192 67 192 8 0 54 -82 109 -197 52 -109 102 -205 111 -215 16 -18 57 -23 88
-12 14 6 143 258 201 392 8 18 20 32 27 29 7 -2 34 -84 60 -183 26 -98 53
-197 60 -219 l12 -40 63 -3 c69 -3 72 0 52 68 -6 19 -42 154 -81 300 -49 186
-77 272 -91 288 -26 27 -87 30 -116 5 -11 -10 -63 -108 -116 -218 -53 -110
-102 -201 -109 -203 -8 -2 -32 37 -62 100 -102 216 -146 304 -163 320 -25 24
-62 30 -98 14z"/>
<path d="M6633 1183 c-9 -3 -13 -26 -13 -64 l0 -59 175 0 175 0 0 -280 0 -280
65 0 65 0 2 278 3 277 163 5 163 5 29 54 c16 29 27 57 24 62 -5 9 -829 11
-851 2z"/>
<path d="M8654 1177 c-3 -8 -4 -36 -2 -63 l3 -49 325 -5 325 -5 0 -105 0 -105
-325 -5 -325 -5 0 -165 0 -165 65 0 65 0 3 103 3 102 162 0 162 0 73 -105 74
-105 84 0 c52 0 84 4 84 11 0 5 -29 51 -65 102 l-65 92 37 13 c87 30 106 76
101 249 -3 132 -11 152 -72 197 -26 20 -42 21 -367 24 -287 3 -340 1 -345 -11z"/>
</g>
</svg>
